<?xml version="1.0" encoding="utf-8"?>
<svg version="1.1" xmlns="http://www.w3.org/2000/svg" viewBox="0 0 2000 2000" width="200" height="200"><style type="text/css">.st0{fill:#2b3e43;stroke:#2b3e43;stroke-width:0.25;stroke-linecap:round;stroke-linejoin:round;}</style><g transform="translate(1000, 800)"><path class="st0" d="M82,260 a272,272 0 1,0 -164,0 V534 a540,540 0 1,1 164,0 z" /><path class="st0" d="M 35,233 a10,10 0 0,1 8,-12 a225,225 0 1,0 -86,0 a10,10 0 0,1 8,12 V539 a540,540 0 0,0 70,0 z M86,0 a86,86 0 0,1 -172,0 a86,86 0 0,1 172,0" /></g></svg>
